<?xml version="1.0" encoding="utf-8"?><svg id="noise2" image-rendering="auto" baseProfile="basic" version="1.1" x="0px" y="0px" width="150" height="25" xmlns="http://www.w3.org/2000/svg" xmlns:xlink="http://www.w3.org/1999/xlink"><g id=".__E3.__82.__B7.__E3.__83.__BC.__E3.__83.__B3-1" overflow="visible"><g id=".__E3.__82.__B7.__E3.__83.__B3.__E3.__83.__9C.__E3.__83.__AB-2" transform="translate(9.5 1.5)"><animateTransform attributeName="transform" additive="replace" type="translate" repeatCount="indefinite" dur="0.8s" keyTimes="0;.042;.083;.125;.167;.208;.25;.292;.333;.375;.417;.458;.5;.542;.583;.625;.667;.708;.75;.792;.833;.875;1" values="9.5,1.5;9.85,.9;10.25,.25;9.5,4.25;10.75,1;10.1,1.95;9.5,3;8.9,1.5;9.5,3;9.8,1;9.7,1.7;9.6,2.45;9.5,3.25;8.9,1.25;9.5,2.6;10.05,4;9.85,2.8;9.65,1.65;9.5,.5;9.95,1.6;10.4,2.75;9.5,1;9.5,1"/><path fill="#333" stroke="none" d="M2.45 15L2.45 .25 -.05 .25 -.05 15 2.45 15M18.45 3L15.7 3 15.7 18.75 18.45 18.75 18.45 3M12.95 0L10.95 0 10.95 18.5 12.95 18.5 12.95 0M27.7 1.75L25.2 1.75 25.2 15.75 27.7 15.75 27.7 1.75M33.7 9L30.7 9 30.7 20 33.7 20 33.7 9M48.2 4.5L46.2 4.5 46.2 18.25 48.2 18.25 48.2 4.5M43.7 1.25L40.95 1.25 40.95 15.25 43.7 15.25 43.7 1.25M57.45 5.25L54.95 5.25 54.95 19 57.45 19 57.45 5.25M68.45 4L65.95 4 65.95 17.25 68.45 17.25 68.45 4M81.7 16L81.7 1 77.95 1 77.95 16 81.7 16M96.45 1L93.2 1 93.2 17.75 96.45 17.75 96.45 1M125.95 11L122.95 11 122.95 22 125.95 22 125.95 11M138.7 0L135.7 0 135.7 16.5 138.7 16.5 138.7 0Z"/></g><g id=".__E3.__82.__B7.__E3.__83.__B3.__E3.__83.__9C.__E3.__83.__AB-1" transform="translate(4.75 2.75)"><animateTransform attributeName="transform" additive="replace" type="translate" repeatCount="indefinite" dur="0.8s" keyTimes="0;.042;.083;.125;.167;.208;.25;.292;.333;.375;.417;.458;.5;.542;.583;.625;.667;.708;.75;.792;.833;.875;.917;1" values="4.75,2.75;4.2,3.85;3.65,5;4.5,1.25;4.55,2.85;4.6,4.5;4.55,4.15;4.5,3.8;4.45,3.5;4.4,3.15;4.35,2.8;4.3,2.5;4.25,2.2;4.2,1.85;4.15,1.5;4.35,1.95;4.5,2.35;4.65,2.75;4.65,2.15;4.6,1.5;4.15,2.5;4.45,1.75;4.65,1;4.65,1"/><path fill="#333" stroke="none" d="M10.25 1.75L10.25 14.5 12.75 14.5 12.75 1.75 10.25 1.75M3.25 3L0 3 0 17.5 3.25 17.5 3.25 3M29.25 6.75L25.75 6.75 25.75 19.5 29.25 19.5 29.25 6.75M55 6.5L55 19.25 58 19.25 58 6.5 55 6.5M41 2.5L41 15.25 44.25 15.25 44.25 2.5 41 2.5M67.75 0L64.5 0 64.5 13.5 67.75 13.5 67.75 0M96 1.5L91.75 1.5 91.75 16.25 96 16.25 96 1.5M81.5 19.5L81.5 6.25 77.25 6.25 77.25 19.5 81.5 19.5M108.5 7L104.25 7 104.25 20 108.5 20 108.5 7M117.75 0L113 0 113 14.75 117.75 14.75 117.75 0M136.75 1L133.75 1 133.75 15.5 136.75 15.5 136.75 1M125.25 6L122.75 6 122.75 18.5 125.25 18.5 125.25 6Z"/></g></g></svg>